<?xml version="1.0" encoding="UTF-8" standalone="no"?>
<!DOCTYPE svg PUBLIC "-//W3C//DTD SVG 1.1//EN" "http://www.w3.org/Graphics/SVG/1.1/DTD/svg11.dtd">
<svg width="100%" height="100%" viewBox="0 0 986 222" version="1.1" xmlns="http://www.w3.org/2000/svg" xmlns:xlink="http://www.w3.org/1999/xlink" xml:space="preserve" xmlns:serif="http://www.serif.com/" style="fill-rule:evenodd;clip-rule:evenodd;stroke-linejoin:round;stroke-miterlimit:2;">
    <g transform="matrix(1.59161,0,0,1.59161,-1037.88,-786.292)">
        <path d="M994.498,496.193C1004.82,495.99 1009.98,495.889 1020.3,495.693C1019.34,498.708 1018.86,500.352 1017.9,503.875C1018.14,503.852 1018.26,503.841 1018.5,503.818C1026.86,495.903 1039.06,494.069 1049.9,494.051C1064.05,494.027 1085.91,496.664 1085.3,515.699C1084.41,543.126 1065.24,585.532 1034.7,589.946C1022.67,591.685 1010.16,586.36 1004.7,574.979C1004.54,575.015 1004.46,575.034 1004.3,575.07C1001.02,594.373 997.94,613.709 994.898,633.049L968.098,633.049C976.444,587.402 983.316,541.264 994.498,496.193ZM755.102,582.948C754.126,551.389 772.471,493.637 812.901,494.05C845.714,494.385 860.218,534.929 860.3,562.598C860.407,598.266 838.932,620.972 803.301,620.779C776.863,620.636 755.943,610.126 755.102,582.948ZM652.104,557.05C651.521,527.529 677.286,494.021 708.104,494.051C738.051,494.08 750.344,524.723 750.703,551.052C740.223,550.14 734.983,549.557 724.503,548.083C724.126,537.541 719.205,525.179 707.303,523.986C684.985,521.748 679.002,553.9 678.904,569.678C678.824,582.396 686.719,594.102 699.503,596.915C709.246,599.059 717.303,603.281 720.903,588.806C731.303,591.084 736.503,591.94 746.903,593.183C740.912,613.414 714.88,615.071 697.903,612.375C669.809,607.915 652.654,584.932 652.104,557.05ZM867.301,577.272C867.465,544.48 885.529,493.541 925.1,494.051C949.32,494.363 973.137,512.547 972.5,538.301C971.695,570.812 948.993,604.944 915.5,610.518C890.604,614.661 867.159,605.639 867.301,577.272ZM803.901,608.821C827.263,607.648 833.504,583.48 833.501,563.845C833.499,549.861 828.144,527.164 811.502,527.176C787.748,527.194 782.527,568.252 781.902,586.438C781.45,599.564 790.331,609.503 803.901,608.821ZM916.1,593.16C936.254,587.33 945.116,562.812 945.7,543.731C946.095,530.811 937.715,517.461 923.701,519.046C900.957,521.618 894.278,554.499 894.1,573.273C893.984,585.654 902.358,597.136 916.1,593.16ZM1235.9,508.027L1236.5,508.103C1243.26,500.205 1253,495.393 1263.5,495.54C1267.3,495.594 1269.7,496.019 1271.1,496.451C1269.26,505.849 1268.34,510.329 1266.5,519.014C1266.26,518.962 1266.14,518.935 1265.9,518.882C1251.89,513.789 1232.98,517.239 1229.9,534.33C1224.6,551.482 1223.01,570.116 1220.3,587.775C1209.58,585.923 1204.22,585.154 1193.5,583.878C1197.91,553.248 1203.45,524.902 1213.3,495.658C1223.62,495.816 1228.78,495.906 1239.1,496.112C1237.82,500.93 1237.18,503.302 1235.9,508.027ZM1118.3,525.975C1118.77,538.03 1124.37,555.129 1139.3,554.87C1148.88,554.703 1157.38,548.231 1160.3,538.841C1170.86,539.552 1176.13,540.113 1186.69,541.745C1183.85,552.501 1178.67,562.808 1170.89,570.808C1162.51,579.431 1150.92,584.431 1138.9,584.415C1108.83,584.377 1092.37,553.94 1091.7,527.575C1090.94,497.567 1124.43,494.457 1146.7,494.051C1157.69,493.85 1165.7,494.74 1172.5,496.745C1187.05,501.104 1194.1,515.2 1189.69,529.78C1165.8,526.358 1142.42,525.266 1118.3,525.975ZM1030.7,563.563C1049.13,559.047 1057.81,536.3 1057.9,519.223C1057.94,510.049 1052.77,504.209 1038.3,505.812C1019.65,507.876 1009.7,527.025 1009.7,544.039C1009.7,555.556 1017.88,566.702 1030.7,563.563ZM1120.7,513.285C1135.48,513.342 1150.14,513.822 1164.89,514.78C1165.3,507.667 1159.65,502.766 1146.1,502.119C1136.75,501.673 1125.28,503.972 1120.7,513.285Z" style="fill-rule:nonzero;"/>
    </g>
</svg>